<svg xmlns="http://www.w3.org/2000/svg" viewBox="0 0 442 207" style="enable-background:new 0 0 442 207" xml:space="preserve"><path d="m25.21 121.97-.24.28-20.38-18.32.24-.26z"/><path d="m76.48 64.91-32.13 35.76 32.13 28.86v38.49l-51.27-46.05-20.38-18.3-1.18-1.07 72.52-80.73.31.27z"/><path d="M76.48 168.02v.49l-51.51-46.26-20.38-18.32.24-.26 20.38 18.3z"/><path d="M76.48 168.02v.49l-51.51-46.26-20.38-18.32.24-.26 20.38 18.3zM95.08 184H341v12H95.08zM127 24.3v76.66l-32 44.15V24.3zm214 143.53h-4.15L340 172h-40.37l-20.02-26.54-37.52-49.75V42.18L314 137.53v3.3h2.49l-2.49-3.3V21.87h27z"/><path d="M316.49 140.83H314v-3.3zm24.51 27V172h-1l-3.15-4.17zm93.5-78.97-72.72 80.56-.3-.27.1-42.76 32.21-35.69-32.06-28.94.09-38.49 51.16 46.17 20.34 18.35zM226.75 23.4l-.2-.27-.2-.26h-38.86l-.69 1.07-91.72 142.7 2.6 2.19h35.6L164.02 121H203v47.83h24.09v-145l-.34-.43zM203 99.87h-25.4L203 60.35v39.52z"/></svg>